<?xml version="1.0" encoding="UTF-8"?>
<svg xmlns="http://www.w3.org/2000/svg" xmlns:xlink="http://www.w3.org/1999/xlink" width="600px" height="450px" viewBox="0 0 600 450" version="1.1">
<defs>
<clipPath id="clip1">
  <path d="M 132.929688 57.863281 L 466.996094 57.863281 L 466.996094 392 L 132.929688 392 Z M 132.929688 57.863281 "/>
</clipPath>
</defs>
<g id="surface1">
<g clip-path="url(#clip1)" clip-rule="nonzero">
<path style=" stroke:none;fill-rule:nonzero;fill:rgb(95%,95%,95%);fill-opacity:1;" d="M 344.394531 184.042969 L 344.394531 81.050781 C 344.421875 81.078125 344.457031 81.082031 344.488281 81.109375 L 443.5 180.136719 C 444.628906 181.269531 445.34375 182.621094 445.828125 184.042969 Z M 279.382812 358.625 L 279.382812 269.347656 L 319.679688 269.347656 C 326.285156 269.347656 332.492188 266.777344 337.15625 262.113281 C 341.820312 257.445312 344.394531 251.238281 344.394531 244.632812 L 344.394531 204.332031 L 433.652344 204.335938 Z M 162.214844 249.058594 L 324.105469 87.144531 L 324.105469 244.628906 C 324.105469 247 322.046875 249.0625 319.675781 249.0625 Z M 259.09375 370.800781 C 257.679688 370.3125 256.328125 369.601562 255.191406 368.464844 L 156.175781 269.441406 C 156.148438 269.414062 156.144531 269.378906 156.117188 269.347656 L 259.09375 269.347656 Z M 457.847656 165.789062 L 358.832031 66.761719 C 346.964844 54.894531 327.660156 54.894531 315.789062 66.761719 L 141.832031 240.742188 C 129.964844 252.613281 129.964844 271.921875 141.832031 283.789062 L 240.847656 382.816406 C 252.714844 394.6875 272.019531 394.6875 283.886719 382.816406 L 457.847656 208.835938 C 469.714844 196.96875 469.710938 177.660156 457.847656 165.789062 "/>
</g>
<path style=" stroke:none;fill-rule:nonzero;fill:rgb(95%,95%,95%);fill-opacity:1;" d="M 142.816406 100.875 L 246.71875 100.875 C 252.175781 100.875 256.601562 96.449219 256.601562 90.988281 C 256.601562 85.53125 252.175781 81.105469 246.71875 81.105469 L 142.816406 81.105469 C 137.359375 81.105469 132.929688 85.53125 132.929688 90.988281 C 132.929688 96.449219 137.359375 100.875 142.816406 100.875 "/>
<path style=" stroke:none;fill-rule:nonzero;fill:rgb(95%,95%,95%);fill-opacity:1;" d="M 142.816406 139.714844 L 207.96875 139.714844 C 213.429688 139.714844 217.851562 135.289062 217.851562 129.828125 C 217.851562 124.367188 213.429688 119.941406 207.96875 119.941406 L 142.816406 119.941406 C 137.359375 119.941406 132.929688 124.367188 132.929688 129.828125 C 132.929688 135.289062 137.359375 139.714844 142.816406 139.714844 "/>
<path style=" stroke:none;fill-rule:nonzero;fill:rgb(95%,95%,95%);fill-opacity:1;" d="M 142.816406 177.375 L 184.882812 177.375 C 190.339844 177.375 194.769531 172.949219 194.769531 167.488281 C 194.769531 162.027344 190.339844 157.601562 184.882812 157.601562 L 142.816406 157.601562 C 137.359375 157.601562 132.929688 162.03125 132.929688 167.488281 C 132.929688 172.949219 137.359375 177.375 142.816406 177.375 "/>
<path style=" stroke:none;fill-rule:nonzero;fill:rgb(95%,95%,95%);fill-opacity:1;" d="M 184.882812 359.160156 L 142.816406 359.160156 C 137.359375 359.160156 132.929688 363.585938 132.929688 369.046875 C 132.929688 374.503906 137.359375 378.933594 142.816406 378.933594 L 184.882812 378.933594 C 190.339844 378.933594 194.769531 374.503906 194.769531 369.046875 C 194.769531 363.585938 190.339844 359.160156 184.882812 359.160156 "/>
</g>
</svg>
